# This file uses centimeters as units for non-parametric coordinates.

mtllib cube.mtl
g default
v -0.500000 -0.500000 0.500000
v 0.500000 -0.500000 0.500000
v -0.500000 0.500000 0.500000
v 0.500000 0.500000 0.500000
v -0.500000 0.500000 -0.500000
v 0.500000 0.500000 -0.500000
v -0.500000 -0.500000 -0.500000
v 0.500000 -0.500000 -0.500000
vt 0.401575 0.414984
vt 0.579077 0.414984
vt 0.401575 0.592486
vt 0.579077 0.592486
vt 0.402718 0.057829
vt 0.579077 0.769988
vt 0.401575 0.235331
vt 0.580220 0.235331
vt 0.401575 0.412833
vt 0.579077 0.412833
vt 0.756579 0.414984
vt 0.756579 0.592486
vt 0.224073 0.414984
vt 0.224073 0.592486
vt 0.579077 0.235331
vt 0.402718 0.235331
vt 0.580220 0.057829
vt 0.401575 0.769988
vn 0.000000 0.000000 1.000000
vn 0.000000 0.000000 1.000000
vn 0.000000 0.000000 1.000000
vn 0.000000 0.000000 1.000000
vn 0.000000 1.000000 0.000000
vn 0.000000 1.000000 0.000000
vn 0.000000 1.000000 0.000000
vn 0.000000 1.000000 0.000000
vn 0.000000 0.000000 -1.000000
vn 0.000000 0.000000 -1.000000
vn 0.000000 0.000000 -1.000000
vn 0.000000 0.000000 -1.000000
vn 0.000000 -1.000000 0.000000
vn 0.000000 -1.000000 0.000000
vn 0.000000 -1.000000 0.000000
vn 0.000000 -1.000000 0.000000
vn 1.000000 0.000000 0.000000
vn 1.000000 0.000000 0.000000
vn 1.000000 0.000000 0.000000
vn 1.000000 0.000000 0.000000
vn -1.000000 0.000000 0.000000
vn -1.000000 0.000000 0.000000
vn -1.000000 0.000000 0.000000
vn -1.000000 0.000000 0.000000
s 1
g pCube1
usemtl lambert2SG
f 1/1/1 2/2/2 3/3/3
f 3/3/3 2/2/2 4/4/4
s 2
f 3/3/5 4/4/6 5/18/7
f 5/18/7 4/4/6 6/6/8
s 3
f 5/5/9 6/17/10 7/16/11
f 7/16/11 6/17/10 8/8/12
s 4
f 7/7/13 8/15/14 1/9/15
f 1/9/15 8/15/14 2/10/16
s 5
f 2/2/17 8/11/18 4/4/19
f 4/4/19 8/11/18 6/12/20
s 6
f 7/13/21 1/1/22 5/14/23
f 5/14/23 1/1/22 3/3/24
