# This file uses centimeters as units for non-parametric coordinates.

mtllib terrain.mtl
g default
v -10.951000 0.000000 0.000000
v -9.855901 0.000000 0.000000
v -8.760800 0.000000 0.000000
v -7.665700 0.000000 0.000000
v -6.570601 0.000000 0.000000
v -5.475500 0.000000 0.000000
v -4.380400 0.000000 0.000000
v -3.285300 0.000000 0.000000
v -2.190200 0.000000 0.000000
v -1.095100 0.000000 0.000000
v 0.000000 0.000000 0.000000
v 1.095100 0.000000 0.000000
v 2.190200 0.000000 0.000000
v 3.285300 0.000000 0.000000
v 4.380400 0.000000 0.000000
v 5.475500 0.000000 0.000000
v 6.570601 0.000000 0.000000
v 7.665700 0.000000 0.000000
v 8.760800 0.000000 0.000000
v 9.855901 0.000000 0.000000
v 10.951000 0.000000 0.000000
v -10.951000 1.886011 0.000000
v -9.855901 1.850182 0.000000
v -8.760800 2.102910 0.000000
v -7.665700 2.012493 0.000000
v -6.570601 1.142147 0.000000
v -5.475500 1.052328 0.000000
v -4.380400 1.177524 0.000000
v -3.285300 1.177524 0.000000
v -2.190200 1.048923 0.000000
v -1.095100 1.611526 0.000000
v 0.000000 1.611526 0.000000
v 1.095100 1.975088 0.000000
v 2.190200 2.100418 0.000000
v 3.285300 2.320195 0.000000
v 4.380400 2.251512 0.000000
v 5.475500 1.444128 0.000000
v 6.570601 1.152592 0.000000
v 7.665700 1.335768 0.000000
v 8.760800 1.678050 0.000000
v 9.855901 1.747499 0.000000
v 10.951000 1.580811 0.000000
vt 0.000000 0.100000
vt 0.050000 0.100000
vt 0.100000 0.100000
vt 0.150000 0.100000
vt 0.200000 0.100000
vt 0.250000 0.100000
vt 0.300000 0.100000
vt 0.350000 0.100000
vt 0.400000 0.100000
vt 0.450000 0.100000
vt 0.500000 0.100000
vt 0.550000 0.100000
vt 0.600000 0.100000
vt 0.650000 0.100000
vt 0.700000 0.100000
vt 0.750000 0.100000
vt 0.800000 0.100000
vt 0.850000 0.100000
vt 0.900000 0.100000
vt 0.950000 0.100000
vt 1.000000 0.100000
vt 0.000000 0.200000
vt 0.050000 0.200000
vt 0.100000 0.200000
vt 0.150000 0.200000
vt 0.200000 0.200000
vt 0.250000 0.200000
vt 0.300000 0.200000
vt 0.350000 0.200000
vt 0.400000 0.200000
vt 0.450000 0.200000
vt 0.500000 0.200000
vt 0.550000 0.200000
vt 0.600000 0.200000
vt 0.650000 0.200000
vt 0.700000 0.200000
vt 0.750000 0.200000
vt 0.800000 0.200000
vt 0.850000 0.200000
vt 0.900000 0.200000
vt 0.950000 0.200000
vt 1.000000 0.200000
vn 0.000000 0.000000 1.000000
vn 0.000000 0.000000 1.000000
vn 0.000000 0.000000 1.000000
vn 0.000000 0.000000 1.000000
vn 0.000000 0.000000 1.000000
vn 0.000000 0.000000 1.000000
vn 0.000000 0.000000 1.000000
vn 0.000000 0.000000 1.000000
vn 0.000000 0.000000 1.000000
vn 0.000000 0.000000 1.000000
vn 0.000000 0.000000 1.000000
vn 0.000000 0.000000 1.000000
vn 0.000000 0.000000 1.000000
vn 0.000000 0.000000 1.000000
vn 0.000000 0.000000 1.000000
vn 0.000000 0.000000 1.000000
vn 0.000000 0.000000 1.000000
vn 0.000000 0.000000 1.000000
vn 0.000000 0.000000 1.000000
vn 0.000000 0.000000 1.000000
vn 0.000000 0.000000 1.000000
vn 0.000000 0.000000 1.000000
vn 0.000000 0.000000 1.000000
vn 0.000000 0.000000 1.000000
vn 0.000000 0.000000 1.000000
vn 0.000000 0.000000 1.000000
vn 0.000000 0.000000 1.000000
vn 0.000000 0.000000 1.000000
vn 0.000000 0.000000 1.000000
vn 0.000000 0.000000 1.000000
vn 0.000000 0.000000 1.000000
vn 0.000000 0.000000 1.000000
vn 0.000000 0.000000 1.000000
vn 0.000000 0.000000 1.000000
vn 0.000000 0.000000 1.000000
vn 0.000000 0.000000 1.000000
vn 0.000000 0.000000 1.000000
vn 0.000000 0.000000 1.000000
vn 0.000000 0.000000 1.000000
vn 0.000000 0.000000 1.000000
vn 0.000000 0.000000 1.000000
vn 0.000000 0.000000 1.000000
s 1
g pPlane1
usemtl lambert2SG
f 2/2/1 23/23/2 1/1/3
f 1/1/3 23/23/2 22/22/4
f 2/2/1 3/3/5 23/23/2
f 23/23/2 3/3/5 24/24/6
f 4/4/7 25/25/8 3/3/5
f 3/3/5 25/25/8 24/24/6
f 5/5/9 26/26/10 4/4/7
f 4/4/7 26/26/10 25/25/8
f 6/6/11 27/27/12 5/5/9
f 5/5/9 27/27/12 26/26/10
f 6/6/11 7/7/13 27/27/12
f 27/27/12 7/7/13 28/28/14
f 7/7/13 8/8/15 28/28/14
f 28/28/14 8/8/15 29/29/16
f 9/9/17 30/30/18 8/8/15
f 8/8/15 30/30/18 29/29/16
f 9/9/17 10/10/19 30/30/18
f 30/30/18 10/10/19 31/31/20
f 10/10/19 11/11/21 31/31/20
f 31/31/20 11/11/21 32/32/22
f 11/11/21 12/12/23 32/32/22
f 32/32/22 12/12/23 33/33/24
f 12/12/23 13/13/25 33/33/24
f 33/33/24 13/13/25 34/34/26
f 13/13/25 14/14/27 34/34/26
f 34/34/26 14/14/27 35/35/28
f 15/15/29 36/36/30 14/14/27
f 14/14/27 36/36/30 35/35/28
f 16/16/31 37/37/32 15/15/29
f 15/15/29 37/37/32 36/36/30
f 17/17/33 38/38/34 16/16/31
f 16/16/31 38/38/34 37/37/32
f 17/17/33 18/18/35 38/38/34
f 38/38/34 18/18/35 39/39/36
f 18/18/35 19/19/37 39/39/36
f 39/39/36 19/19/37 40/40/38
f 19/19/37 20/20/39 40/40/38
f 40/40/38 20/20/39 41/41/40
f 21/21/41 42/42/42 20/20/39
f 20/20/39 42/42/42 41/41/40
